<svg width="174" height="449" viewBox="0 0 174 449" fill="none" xmlns="http://www.w3.org/2000/svg">
<path d="M25.2 0C28.1333 0.133332 31.2 0.333329 34.4 0.599992C37.6 0.866663 41.0666 0.999999 44.8 0.999999C47.6 0.999999 51.4666 0.999999 56.4 0.999999C61.3333 0.999999 66.9333 0.999999 73.2 0.999999C79.4667 0.999999 85.9333 0.999999 92.6 0.999999C99.2666 0.999999 105.733 0.999999 112 0.999999C118.267 0.999999 123.933 0.999999 129 0.999999C134.067 0.999999 138.067 0.999999 141 0.999999C144.467 0.999999 147.733 0.933333 150.8 0.800002C153.867 0.53333 156.6 0.266663 159 0V25C156.467 24.8667 153.733 24.7333 150.8 24.6C148 24.4667 144.733 24.4 141 24.4C138.067 24.4 133.933 24.4 128.6 24.4C123.267 24.4 117.2 24.4 110.4 24.4C103.733 24.4 96.8667 24.4 89.8 24.4C82.8666 24.4 76.2666 24.4 70 24.4C63.7333 24.4 58.3333 24.4 53.8 24.4C49.4 24.4 46.4 24.4 44.8 24.4C41.0666 24.4 37.6 24.4667 34.4 24.6C31.2 24.6 28.1333 24.7333 25.2 25V0ZM94 70.4C94 72.8 94 76 94 80C94 84 94 88.2667 94 92.8C94 97.2 94 101.267 94 105C94 108.733 94 111.467 94 113.2C94 118.667 95.8 122.533 99.4 124.8C103 127.067 108.8 128.2 116.8 128.2C125.867 128.2 134.733 127.933 143.4 127.4C152.067 126.867 160.4 126.2 168.4 125.4L166.6 152.4C162.333 152.667 157.133 152.933 151 153.2C145 153.467 138.6 153.667 131.8 153.8C125 153.933 118.467 154 112.2 154C100.067 154 90.6667 152.667 84 150C77.4666 147.333 72.9333 143.6 70.4 138.8C67.8666 133.867 66.6 128 66.6 121.2C66.6 118 66.6 114.067 66.6 109.4C66.6 104.733 66.6 99.8667 66.6 94.8C66.6 89.7333 66.6 85 66.6 80.6C66.6 76.2 66.6 72.5333 66.6 69.6C66.6 68 66.6 65.4667 66.6 62C66.6 58.5333 66.6 54.6 66.6 50.2C66.6 45.6667 66.6 41.2667 66.6 37C66.6 32.7333 66.6 28.9333 66.6 25.6C66.6 22.1333 66.6 19.8 66.6 18.6H94C94 19.8 94 22.2667 94 26C94 29.7333 94 34.0667 94 39C94 43.8 94 48.5333 94 53.2C94 57.8667 94 61.8 94 65C94 68.2 94 70 94 70.4ZM12 57.4C14.9333 57.5333 18.5333 57.7333 22.8 58C27.2 58.2667 30.9333 58.4 34 58.4C36.6666 58.4 40.5333 58.4 45.6 58.4C50.8 58.4 56.7333 58.4 63.4 58.4C70.2 58.4 77.3333 58.4 84.8 58.4C92.4 58.4 99.8666 58.4 107.2 58.4C114.533 58.4 121.4 58.4 127.8 58.4C134.333 58.4 139.867 58.4 144.4 58.4C149.067 58.4 152.4 58.4 154.4 58.4C155.867 58.4 157.8 58.3333 160.2 58.2C162.6 58.0667 165 58 167.4 58C169.933 57.8667 172.067 57.7333 173.8 57.6L174 83.2C171.333 82.9333 168.067 82.8 164.2 82.8C160.333 82.6667 157.267 82.6 155 82.6C153 82.6 149.6 82.6 144.8 82.6C140.133 82.6 134.533 82.6 128 82.6C121.467 82.6 114.467 82.6 107 82.6C99.5333 82.6 92.0667 82.6 84.6 82.6C77.1333 82.6 70 82.6 63.2 82.6C56.5333 82.6 50.6666 82.6 45.6 82.6C40.5333 82.6 36.6666 82.6 34 82.6C31.2 82.6 27.6 82.7333 23.2 83C18.8 83.1333 15.0666 83.3333 12 83.6V57.4Z" fill="white"/>
<path d="M47.4 352.4C47.4 349.6 47.4 345.6 47.4 340.4C47.4 335.067 47.4 329.067 47.4 322.4C47.4 315.6 47.4 308.533 47.4 301.2C47.4 293.733 47.4 286.467 47.4 279.4C47.4 272.2 47.4 265.533 47.4 259.4C47.4 253.267 47.4 248.133 47.4 244C47.4 241.867 47.3333 239.4 47.2 236.6C47.2 233.8 47.0666 231 46.8 228.2C46.5333 225.4 46.2 223 45.8 221H75.6C75.2 224.067 74.8 227.867 74.4 232.4C74 236.8 73.8 240.667 73.8 244C73.8 248 73.8 252.8 73.8 258.4C73.8 263.867 73.8 269.8 73.8 276.2C73.8 282.467 73.8 288.867 73.8 295.4C73.8 301.933 73.8 308.333 73.8 314.6C73.8 320.867 73.8 326.6 73.8 331.8C73.8 337 73.8 341.533 73.8 345.4C73.8 349.4 74.4 352.667 75.6 355.2C76.8 357.733 79.2 359.533 82.8 360.6C86.5333 361.667 92.0666 362.2 99.4 362.2C106.467 362.2 113.533 361.933 120.6 361.4C127.8 360.733 134.933 359.933 142 359C149.067 357.933 155.867 356.733 162.4 355.4L161.6 382.6C156.133 383.4 149.933 384.133 143 384.8C136.067 385.467 128.867 386 121.4 386.4C114.067 386.8 106.8 387 99.6 387C88.2666 387 79.1333 386.267 72.2 384.8C65.2666 383.467 60 381.4 56.4 378.6C52.9333 375.8 50.5333 372.2 49.2 367.8C48 363.4 47.4 358.267 47.4 352.4ZM173.4 264.4C172.467 265.867 171.333 267.667 170 269.8C168.8 271.8 167.733 273.667 166.8 275.4C164.667 279.533 161.933 284.2 158.6 289.4C155.4 294.6 151.933 299.933 148.2 305.4C144.467 310.867 140.6 316.067 136.6 321C132.733 325.933 129 330.133 125.4 333.6L103.4 320.6C107.8 316.733 112.067 312.333 116.2 307.4C120.467 302.333 124.267 297.4 127.6 292.6C130.933 287.667 133.533 283.533 135.4 280.2C133.533 280.467 130.267 281.133 125.6 282.2C121.067 283.133 115.467 284.267 108.8 285.6C102.133 286.933 94.8666 288.4 87 290C79.1333 291.467 71.2 293 63.2 294.6C55.2 296.2 47.4666 297.8 40 299.4C32.5333 300.867 25.8 302.267 19.8 303.6C13.8 304.8 8.99998 305.8 5.39998 306.6L0.599976 280.4C4.46664 279.867 9.53331 279.133 15.8 278.2C22.0666 277.133 29.0666 275.933 36.8 274.6C44.5333 273.133 52.6 271.6 61 270C69.4 268.4 77.7333 266.8 86 265.2C94.2666 263.6 102 262.133 109.2 260.8C116.4 259.333 122.667 258.067 128 257C133.333 255.8 137.333 254.867 140 254.2C142.8 253.533 145.4 252.867 147.8 252.2C150.2 251.4 152.333 250.533 154.2 249.6L173.4 264.4Z" fill="white"/>
<path d="M44.4062 448.469C43.3854 447.177 42.5469 445.802 41.8906 444.344C41.2448 442.896 40.7604 441.349 40.4375 439.703C40.125 438.057 39.9687 436.307 39.9687 434.453C39.9687 432.599 40.125 430.854 40.4375 429.219C40.7604 427.573 41.25 426.026 41.9062 424.578C42.5625 423.12 43.3958 421.745 44.4062 420.453H46.6875C46.125 421.109 45.6041 421.958 45.125 423C44.6458 424.042 44.2239 425.203 43.8594 426.484C43.5052 427.755 43.2291 429.078 43.0312 430.453C42.8333 431.818 42.7344 433.151 42.7344 434.453C42.7344 435.755 42.8333 437.094 43.0312 438.469C43.2291 439.844 43.5052 441.172 43.8594 442.453C44.2239 443.724 44.6458 444.88 45.125 445.922C45.6041 446.964 46.125 447.812 46.6875 448.469H44.4062Z" fill="white" fill-opacity="0.24"/>
<path d="M49.5 443V420.453H52.75L60.5625 439.453H60.6562L68.4687 420.453H71.7187V443H69.0937V425.578H67.8125L70.8594 421.078L61.7969 443H59.4219L50.3594 421.078L53.4062 425.578H52.125V443H49.5Z" fill="white" fill-opacity="0.24"/>
<path d="M82.4062 443.312C80.9062 443.312 79.5885 442.969 78.4531 442.281C77.3281 441.594 76.4479 440.62 75.8125 439.359C75.1875 438.089 74.875 436.594 74.875 434.875V434.844C74.875 433.115 75.1875 431.625 75.8125 430.375C76.4479 429.115 77.3281 428.146 78.4531 427.469C79.5885 426.781 80.901 426.438 82.3906 426.438C83.8906 426.438 85.2031 426.781 86.3281 427.469C87.4635 428.146 88.3437 429.115 88.9687 430.375C89.6041 431.625 89.9219 433.115 89.9219 434.844V434.875C89.9219 436.604 89.6041 438.099 88.9687 439.359C88.3437 440.62 87.4687 441.594 86.3437 442.281C85.2187 442.969 83.9062 443.312 82.4062 443.312ZM82.4219 440.906C83.3802 440.906 84.2083 440.672 84.9062 440.203C85.6146 439.724 86.1614 439.036 86.5469 438.141C86.9427 437.234 87.1406 436.146 87.1406 434.875V434.844C87.1406 433.573 86.9427 432.49 86.5469 431.594C86.1614 430.698 85.6094 430.016 84.8906 429.547C84.1823 429.078 83.3489 428.844 82.3906 428.844C81.4531 428.844 80.625 429.083 79.9062 429.562C79.1979 430.031 78.6458 430.714 78.25 431.609C77.8541 432.495 77.6562 433.573 77.6562 434.844V434.875C77.6562 436.146 77.8541 437.234 78.25 438.141C78.6458 439.036 79.1979 439.724 79.9062 440.203C80.625 440.672 81.4635 440.906 82.4219 440.906Z" fill="white" fill-opacity="0.24"/>
<path d="M99.3281 435.125V432.594H109.328V435.125H99.3281Z" fill="white" fill-opacity="0.24"/>
<path d="M127.312 443.375C125.687 443.375 124.255 443.125 123.016 442.625C121.786 442.115 120.807 441.391 120.078 440.453C119.359 439.516 118.953 438.406 118.859 437.125L118.844 436.906H121.656L121.687 437.125C121.802 437.875 122.109 438.526 122.609 439.078C123.109 439.62 123.771 440.042 124.594 440.344C125.427 440.635 126.385 440.781 127.469 440.781C128.552 440.781 129.49 440.63 130.281 440.328C131.073 440.016 131.682 439.573 132.109 439C132.547 438.427 132.766 437.755 132.766 436.984V436.969C132.766 435.979 132.422 435.188 131.734 434.594C131.047 434 129.927 433.531 128.375 433.188L125.875 432.641C123.677 432.151 122.047 431.401 120.984 430.391C119.932 429.37 119.406 428.036 119.406 426.391V426.375C119.417 425.135 119.76 424.047 120.437 423.109C121.115 422.161 122.047 421.422 123.234 420.891C124.432 420.349 125.802 420.078 127.344 420.078C128.812 420.078 130.125 420.344 131.281 420.875C132.437 421.396 133.359 422.125 134.047 423.062C134.745 424 135.135 425.083 135.219 426.312L135.234 426.547H132.422L132.391 426.328C132.276 425.557 131.995 424.901 131.547 424.359C131.099 423.818 130.51 423.401 129.781 423.109C129.062 422.818 128.224 422.672 127.266 422.672C126.266 422.672 125.391 422.823 124.641 423.125C123.891 423.427 123.307 423.849 122.891 424.391C122.484 424.932 122.281 425.568 122.281 426.297V426.312C122.281 427.229 122.63 427.984 123.328 428.578C124.026 429.172 125.109 429.63 126.578 429.953L129.078 430.5C130.62 430.833 131.87 431.276 132.828 431.828C133.797 432.38 134.505 433.068 134.953 433.891C135.411 434.703 135.641 435.682 135.641 436.828V436.844C135.641 438.177 135.302 439.333 134.625 440.312C133.958 441.292 133 442.047 131.75 442.578C130.51 443.109 129.031 443.375 127.312 443.375Z" fill="white" fill-opacity="0.24"/>
<path d="M145.203 443.312C143.651 443.312 142.312 442.969 141.187 442.281C140.073 441.594 139.214 440.625 138.609 439.375C138.016 438.115 137.719 436.635 137.719 434.938V434.922C137.719 433.245 138.021 431.771 138.625 430.5C139.229 429.219 140.078 428.224 141.172 427.516C142.266 426.797 143.552 426.438 145.031 426.438C146.51 426.438 147.781 426.781 148.844 427.469C149.917 428.146 150.74 429.099 151.312 430.328C151.885 431.557 152.172 432.984 152.172 434.609V435.609H139.078V433.484H150.828L149.453 435.453V434.406C149.453 433.146 149.26 432.104 148.875 431.281C148.5 430.458 147.979 429.849 147.312 429.453C146.646 429.047 145.88 428.844 145.016 428.844C144.151 428.844 143.375 429.057 142.687 429.484C142 429.901 141.458 430.526 141.062 431.359C140.667 432.182 140.469 433.198 140.469 434.406V435.453C140.469 436.599 140.661 437.578 141.047 438.391C141.443 439.203 142 439.828 142.719 440.266C143.437 440.693 144.286 440.906 145.266 440.906C145.953 440.906 146.568 440.802 147.109 440.594C147.651 440.385 148.104 440.099 148.469 439.734C148.833 439.37 149.094 438.953 149.25 438.484L149.297 438.344H151.969L151.937 438.5C151.802 439.167 151.542 439.792 151.156 440.375C150.781 440.958 150.297 441.474 149.703 441.922C149.109 442.359 148.432 442.703 147.672 442.953C146.911 443.193 146.089 443.312 145.203 443.312Z" fill="white" fill-opacity="0.24"/>
<path d="M156.062 448.469H153.781C154.344 447.812 154.865 446.964 155.344 445.922C155.823 444.88 156.24 443.719 156.594 442.438C156.958 441.156 157.24 439.833 157.437 438.469C157.635 437.094 157.734 435.755 157.734 434.453C157.734 433.151 157.635 431.818 157.437 430.453C157.24 429.078 156.958 427.755 156.594 426.484C156.24 425.203 155.823 424.042 155.344 423C154.865 421.958 154.344 421.109 153.781 420.453H156.062C157.083 421.745 157.917 423.12 158.562 424.578C159.219 426.026 159.703 427.573 160.016 429.219C160.339 430.854 160.5 432.599 160.5 434.453C160.5 436.307 160.339 438.057 160.016 439.703C159.703 441.349 159.219 442.901 158.562 444.359C157.917 445.818 157.083 447.188 156.062 448.469Z" fill="white" fill-opacity="0.24"/>
</svg>
