<svg width="360" height="54" viewBox="0 0 360 54" fill="none" xmlns="http://www.w3.org/2000/svg">
<path d="M42.264 53H26.904V28.936C26.904 23.368 25.24 21.768 21.336 21.768C17.752 21.768 15.896 23.688 15.896 32.264V53H0.536V6.92H15.896V28.424C15.896 12.104 19.736 6.6 28.696 6.6C38.552 6.6 42.264 11.272 42.264 25.416V29.064C42.264 12.424 45.912 6.6 55.064 6.6C64.92 6.6 68.632 11.208 68.632 25.288V53H53.272V28.936C53.272 23.368 51.608 21.768 47.704 21.768C44.12 21.768 42.264 23.88 42.264 32.776V53ZM92.2095 6.6C106.802 6.6 113.458 13.704 113.458 28.04V31.88C113.458 46.216 106.802 53.32 92.2095 53.32C77.6815 53.32 70.9615 46.216 70.9615 31.88V28.04C70.9615 13.704 77.6815 6.6 92.2095 6.6ZM92.2095 39.944C96.3055 39.944 98.0975 38.152 98.0975 31.304V28.616C98.0975 21.768 96.3055 19.976 92.2095 19.976C88.1135 19.976 86.3215 21.768 86.3215 28.616V31.304C86.3215 38.152 88.1135 39.944 92.2095 39.944ZM155.523 39.688C155.523 49.224 148.931 53.32 135.491 53.32C122.371 53.32 115.267 49.288 115.267 37.704V37.128H129.859V37.576C129.859 41.096 131.651 42.568 135.811 42.568C139.459 42.568 140.995 41.672 140.995 39.624V39.432C140.995 36.936 139.971 36.296 130.819 35.08C119.107 33.48 115.267 30.152 115.267 20.872V20.616C115.267 11.464 121.795 6.6 135.427 6.6C149.187 6.6 155.523 11.4 155.523 22.472V22.856H140.995V22.344C140.995 18.824 139.203 17.48 135.235 17.48C131.331 17.48 129.859 18.696 129.859 20.808V20.872C129.859 23.304 130.947 23.944 139.331 24.648C151.171 25.608 155.523 29.512 155.523 39.304V39.688ZM199.834 33.352H172.762C173.018 39.688 174.618 41.16 178.906 41.16C182.17 41.16 184.474 39.944 184.474 36.424V36.104H199.834V36.808C199.834 47.752 192.154 53.32 178.842 53.32C164.122 53.32 157.338 46.408 157.338 31.688V28.104C157.338 13.448 164.186 6.6 178.65 6.6C192.218 6.6 199.834 12.616 199.834 24.648V33.352ZM178.586 18.632C175.13 18.632 173.274 20.04 172.826 25.288H184.474V24.52C184.474 19.912 182.426 18.632 178.586 18.632ZM241.835 39.688C241.835 49.224 235.243 53.32 221.803 53.32C208.683 53.32 201.579 49.288 201.579 37.704V37.128H216.171V37.576C216.171 41.096 217.963 42.568 222.123 42.568C225.771 42.568 227.307 41.672 227.307 39.624V39.432C227.307 36.936 226.283 36.296 217.131 35.08C205.419 33.48 201.579 30.152 201.579 20.872V20.616C201.579 11.464 208.107 6.6 221.739 6.6C235.499 6.6 241.835 11.4 241.835 22.472V22.856H227.307V22.344C227.307 18.824 225.515 17.48 221.547 17.48C217.643 17.48 216.171 18.696 216.171 20.808V20.872C216.171 23.304 217.259 23.944 225.643 24.648C237.483 25.608 241.835 29.512 241.835 39.304V39.688ZM242.634 25.8V13.512H247.882V12.808C247.882 4.872 252.234 0.839996 259.53 0.839996H270.986V9.608H266.25C263.946 9.608 263.242 10.632 263.242 12.808V13.512H270.666V25.8H263.242V53H247.882V25.8H242.634ZM299.422 24.072V0.839996H314.782V53H299.422V35.72C299.422 48.712 295.582 53.32 286.558 53.32C275.87 53.32 272.286 47.944 272.286 33.16V26.568C272.286 12.616 275.87 6.6 286.558 6.6C295.582 6.6 299.422 11.848 299.422 24.072ZM299.422 27.144C299.422 20.36 297.694 18.824 293.598 18.824C289.502 18.824 287.646 20.744 287.646 29.448V30.216C287.646 38.984 289.502 41.096 293.598 41.096C297.694 41.096 299.422 39.432 299.422 32.52V27.144ZM338.585 6.6C353.177 6.6 359.833 13.704 359.833 28.04V31.88C359.833 46.216 353.177 53.32 338.585 53.32C324.057 53.32 317.337 46.216 317.337 31.88V28.04C317.337 13.704 324.057 6.6 338.585 6.6ZM338.585 39.944C342.681 39.944 344.473 38.152 344.473 31.304V28.616C344.473 21.768 342.681 19.976 338.585 19.976C334.489 19.976 332.697 21.768 332.697 28.616V31.304C332.697 38.152 334.489 39.944 338.585 39.944Z" fill="white"/>
</svg>
